<?xml version="1.0" encoding="iso-8859-1"?>
<!-- Generator: Adobe Illustrator 19.0.0, SVG Export Plug-In . SVG Version: 6.00 Build 0)  -->
<svg version="1.1" id="Capa_1" xmlns="http://www.w3.org/2000/svg" xmlns:xlink="http://www.w3.org/1999/xlink" x="0px" y="0px"
	 viewBox="0 0 512 512" style="enable-background:new 0 0 512 512;" xml:space="preserve">
<path style="fill:#FFCC74;" d="M256,512c-68.38,0-132.667-26.629-181.02-74.98C26.629,388.667,0,324.38,0,256
	S26.629,123.333,74.98,74.98C123.333,26.629,187.62,0,256,0s132.667,26.629,181.02,74.98C485.371,123.333,512,187.62,512,256
	s-26.629,132.667-74.98,181.02C388.667,485.371,324.38,512,256,512z"/>
<path style="fill:#FFB55F;" d="M437.02,74.98C388.667,26.629,324.38,0,256,0v512c68.38,0,132.667-26.629,181.02-74.98
	C485.371,388.667,512,324.38,512,256S485.371,123.333,437.02,74.98z"/>
<path style="fill:#F2EBD9;" d="M256,431c-96.495,0-175-78.505-175-175S159.505,81,256,81h6v30h-6c-79.953,0-145,65.047-145,145
	s65.047,145,145,145s145-65.047,145-145h30C431,352.495,352.495,431,256,431z"/>
<polygon style="fill:#F9DCA7;" points="256,138.426 256,53.574 309.426,96 "/>
<path style="fill:#F3484B;" d="M177,288.062c0-4.707,0.374-8.85,1.129-12.429c0.753-3.577,1.977-6.802,3.673-9.676
	c1.695-2.871,3.884-5.438,6.568-7.698c2.684-2.26,6.003-4.471,9.958-6.639c5.085-2.73,9.11-4.919,12.076-6.568
	c2.967-1.646,5.202-2.988,6.709-4.026c1.504-1.035,2.472-1.906,2.896-2.613c0.424-0.706,0.635-1.483,0.635-2.331
	c0-2.353-0.755-4.096-2.26-5.226c-1.507-1.13-3.579-1.695-6.215-1.695c-3.107,0-6.051,0.801-8.828,2.401
	c-2.778,1.602-5.674,4.191-8.686,7.769l-16.95-19.916c1.788-1.977,4.097-3.789,6.921-5.438c2.825-1.646,5.954-3.059,9.392-4.237
	c3.437-1.176,7.085-2.095,10.947-2.754c3.86-0.658,7.815-0.989,11.864-0.989c10.827,0,19.044,2.237,24.647,6.709
	c5.601,4.473,8.404,10.712,8.404,18.715c0,2.92-0.377,5.508-1.13,7.769c-0.755,2.26-1.766,4.308-3.036,6.144
	c-1.271,1.836-2.803,3.509-4.59,5.014c-1.79,1.507-3.672,2.92-5.649,4.237c-2.356,1.602-4.827,3.132-7.416,4.591
	c-2.591,1.461-5.155,3.085-7.698,4.873h31.073v24.011H177V288.062z"/>
<path style="fill:#D93031;" d="M296.35,306v-17.514h-36.3v-24.011l44.774-57.062h18.362v57.062h12.43v24.011h-12.43V306H296.35z
	 M286.463,264.475h12.994v-16.95L286.463,264.475z"/>
<path style="fill:#F9DCA7;" d="M256,401v30c96.495,0,175-78.505,175-175h-30C401,335.953,335.953,401,256,401z"/>
<g>
</g>
<g>
</g>
<g>
</g>
<g>
</g>
<g>
</g>
<g>
</g>
<g>
</g>
<g>
</g>
<g>
</g>
<g>
</g>
<g>
</g>
<g>
</g>
<g>
</g>
<g>
</g>
<g>
</g>
</svg>
